PathFileType	4	(X/Y/Z)	C:/Users/beibeiliu/ov580/test_trc/User1\sequence.31_training_dense_right.trc
DataRate	CameraRate	NumFrames	NumMarkers	Units	OrigDataRate	OrigDataStartFrame	OrigNumFrames
120	120	18	19	mm	120	129	256
Frame#	Time	ThumbCMC			ThumbMCP			ThumbIP			ThumbTip			IndexMCP			IndexPIP			IndexTip			MiddleMCP			MiddlePIP			MiddleTip			RingMCP			RingPIP			RingTip			PinkyMCP			PinkyPIP			PinkyTip			BackHand1			BackHand2			BackHand3	
		X0	Y0	Z0	X1	Y1	Z1	X2	Y2	Z2	X3	Y3	Z3	X4	Y4	Z4	X5	Y5	Z5	X6	Y6	Z6	X7	Y7	Z7	X8	Y8	Z8	X9	Y9	Z9	X10	Y10	Z10	X11	Y11	Z11	X12	Y12	Z12	X13	Y13	Z13	X14	Y14	Z14	X15	Y15	Z15	X16	Y16	Z16	X17	Y17	Z17	X18	Y18	Z18	
128	1.06667	101.122	-33.9141	83.819	88.1037	-57.6104	74.8991	69.9102	-74.9387	61.8187	52.4049	-94.0169	52.8129	80.6015	-24.636	-2.39954	75.0783	-33.1804	-29.7481	78.6022	-58.7129	-49.2335	105.407	-10.6566	-17.2908	99.0471	-23.2953	-51.9714	106.166	-53.7816	-72.0386	126.797	-4.49735	-21.8276	124.657	-12.0344	-52.8655	125.887	-33.7105	-73.0415	165.582	-7.06737	-11.9674	165.51	-6.16281	-27.6926	165.454	-0.809232	-49.3325	142.394	2.92673	29.7214	153.617	12.9627	63.7702	118.037	-3.1182	60.0052	
129	1.075	103.166	-33.0177	78.2727	84.566	-56.0537	70.3746	66.0381	-72.5568	59.8409	53.1747	-90.7209	49.2466	81.1478	-22.6685	-7.3837	71.9346	-34.9597	-31.2576	80.6897	-62.708	-47.6667	101.52	-8.1259	-22.4641	100.584	-22.4289	-53.959	104.764	-56.7974	-68.8447	126.613	-2.68694	-21.3895	124.483	-8.86336	-50.9938	127.155	-34.9072	-72.7909	159.862	-6.23498	-10.1665	168.844	-4.41538	-33.2442	169.829	1.28008	-54.635	140.867	4.95036	30.8671	151.802	11.0933	65.6607	114.547	-1.69115	58.3858	
130	1.08333	104.59	-30.9116	78.2211	81.1396	-55.5217	67.9455	66.0993	-69.5826	51.7955	55.7707	-87.3033	39.1627	80.6692	-21.5906	-6.29073	71.808	-36.3008	-32.4347	86.602	-64.7699	-45.2054	104.857	-5.63874	-26.1351	100.184	-24.0339	-55.1739	108.222	-55.4235	-64.9429	127.457	0.128164	-24.5335	122.851	-10.4353	-55.3272	126.341	-37.7884	-72.2496	158.483	-3.27183	-15.5917	166.246	-1.4064	-32.0658	165.902	4.70292	-58.7565	137.896	7.23592	29.6945	154.824	14.0047	60.9115	115.855	-1.0004	55.0679	
131	1.09167	103.841	-30.3853	73.0862	85.1253	-53.7921	66.854	65.5601	-69.8342	47.4187	58.3209	-85.4143	31.4162	78.3547	-22.23	-5.56725	74.0063	-36.5061	-35.5983	87.6417	-68.6277	-37.8951	103.91	-4.72291	-23.1734	100.156	-25.305	-56.4267	114.896	-59.3346	-59.7937	126.963	2.11252	-24.4895	122.154	-9.58139	-56.6752	129.931	-40.7452	-68.0747	158.408	1.70829	-16.0116	162.954	1.68659	-39.5694	163.699	4.75588	-62.5758	138.388	8.26457	29.9436	149.781	16.9929	56.6329	114.101	1.111	51.4794	
132	1.1	104.14	-32.0372	76.0472	84.154	-54.4039	62.5469	68.2972	-68.1693	38.3472	67.5668	-81.4141	18.0369	83.2962	-20.5613	-11.2477	81.2779	-39.439	-38.8597	96.9927	-73.8525	-29.779	98.7492	-4.15753	-25.341	100.893	-26.2961	-57.7511	117.047	-57.9557	-54.1865	124.535	4.49627	-28.6711	121.207	-8.81849	-57.4898	129.429	-42.8681	-62.2454	157.161	5.72281	-15.5773	158.408	5.49233	-44.6325	155.904	-1.12221	-67.1888	139.066	13.9022	27.2067	153.354	18.5036	57.3784	114.126	2.844	54.736	
133	1.10833	103.875	-32.4859	73.5773	85.156	-53.4204	53.4505	75.1711	-65.8768	33.7525	73.1219	-79.984	10.581	78.7229	-23.533	-14.6352	81.8352	-45.1493	-39.156	105.836	-71.4359	-26.831	102.639	-4.15405	-31.3594	98.91	-26.0404	-56.0331	120.334	-59.6326	-49.9469	126.317	5.58987	-29.9903	125.957	-10.2288	-59.9046	136.681	-41.3977	-60.4365	158.866	8.43736	-20.4682	160.548	6.3093	-48.1386	153.812	-4.52851	-67.9273	138.75	11.8142	24.4111	146.931	17.1823	54.664	112.891	0.532427	51.3279	
134	1.11667	106.807	-30.2939	70.2645	86.5591	-53.0924	55.5079	70.4167	-68.3084	31.6356	72.5955	-80.4133	6.18023	81.712	-21.3859	-15.9044	79.8641	-44.6748	-39.5596	103.254	-72.7752	-26.6865	98.7389	-5.11848	-30.8125	101.379	-28.9095	-57.9652	122.386	-63.2885	-45.7372	123.161	4.79042	-30.942	123.693	-11.7765	-59.557	133.093	-47.9205	-56.5834	156.142	6.87344	-18.2962	156.239	3.1384	-48.5144	152.671	-9.29986	-70.0326	137.812	13.0961	27.0682	151.505	15.8859	57.8397	116.728	3.6869	51.0926	
135	1.125	103.285	-30.5473	69.4027	82.4003	-54.8662	56.8676	70.0397	-68.8322	32.0248	73.3328	-80.1882	8.59976	79.8195	-22.4779	-13.4004	83.7514	-41.9466	-41.8625	103.763	-70.6057	-34.0937	101.602	-4.85133	-33.6113	102.122	-27.9121	-58.7977	118.31	-60.8648	-52.7834	123.68	3.77955	-34.3857	124.376	-16.0297	-61.3136	134.628	-44.0295	-60.2658	156.711	5.16274	-20.3316	159.475	2.25473	-49.8336	155.463	-12.3837	-71.8127	139.209	11.7353	22.2797	150.698	17.5621	57.483	114.815	1.57733	47.1517	
136	1.13333	104.842	-30.7112	72.074	86.1616	-53.0646	55.6595	74.1547	-67.729	35.1254	71.4895	-82.1021	12.5756	85.038	-18.4326	-14.3857	78.5599	-38.618	-41.3895	100.162	-70.3605	-40.6698	103.455	-4.09208	-31.8976	99.3151	-23.7281	-57.8096	116.694	-58.3955	-58.5008	128.805	5.17489	-30.8869	126.511	-11.0239	-60.0272	134.553	-44.0417	-64.9501	157.926	5.51005	-20.1806	161.505	0.862272	-48.2281	154.695	-14.1933	-70.8342	140.358	13.1522	22.5436	155.656	16.727	56.3172	116.073	4.00844	47.8669	
137	1.14167	104.716	-31.2435	72.76	85.4433	-54.3344	57.4336	69.8886	-69.885	37.8867	69.7956	-85.0439	20.1234	82.9231	-18.5578	-15.9774	78.124	-35.3714	-41.272	90.4825	-65.1925	-50.3825	104.274	-3.7731	-30.4498	98.762	-24.874	-60.8481	111.566	-56.97	-65.3166	128.815	5.84826	-32.5356	124.516	-10.8632	-62.6973	130.864	-41.6488	-70.3814	159.326	3.91082	-22.9458	162.722	1.28148	-46.4723	163.136	-13.6884	-71.7973	145.436	13.6849	23.9256	150.95	16.9807	56.5312	114.942	1.67035	48.9213	
138	1.15	104.921	-31.0485	72.9769	86.4704	-54.9199	62.0213	70.6497	-71.6456	43.5348	62.5592	-90.0616	27.4346	85.0577	-17.532	-14.7104	76.5643	-32.6429	-42.1973	87.0382	-57.5693	-57.2182	104.98	-2.85353	-30.3359	100.602	-21.5359	-60.7066	112.397	-47.766	-73.8579	131.788	4.20774	-27.6931	129.349	-5.80126	-62.3593	129.669	-33.4417	-76.533	162.533	2.162	-21.5909	165.598	-0.367789	-44.5213	166.268	-8.58018	-71.3127	142.555	12.2894	24.0038	155.464	17.686	55.3392	119.579	1.4474	51.6853	
139	1.15833	109.062	-30.7697	71.7829	90.2589	-54.8833	59.1572	72.2117	-73.2172	46.3774	64.8747	-88.9962	33.4922	83.1453	-19.2723	-11.8018	75.7263	-30.406	-41.4252	80.9932	-50.1378	-60.0464	106.723	-3.53606	-28.8049	102.772	-17.7169	-61.6046	111.439	-41.9663	-80.8575	131.914	1.55799	-27.0216	130.634	-2.87524	-58.6954	132.225	-26.8837	-82.3411	168.143	-1.18827	-21.478	169.117	-2.68247	-40.6348	170.738	-6.24048	-68.8791	144.007	9.43483	24.4184	155.879	16.9282	56.851	120.993	1.70104	50.4652	
140	1.16667	107.805	-30.397	68.4972	89.0069	-56.8903	63.6263	75.6721	-73.5397	50.5011	62.9279	-90.226	38.0215	87.0571	-19.7538	-10.475	78.9811	-26.9885	-43.5638	76.0996	-45.2122	-65.0856	110.241	-4.70632	-27.377	103.336	-14.679	-61.8486	110.758	-33.7139	-87.6141	138.217	3.0006	-30.6037	131.314	-2.43907	-60.1094	135.445	-20.1923	-86.6249	169.698	-4.76613	-18.5236	172.72	-6.49025	-39.4677	174.817	-7.92524	-69.9739	151.667	8.35643	24.4955	157.485	14.2648	53.6143	119.179	-0.120055	49.4892	
141	1.175	107.745	-31.5204	72.2763	92.0942	-57.7719	59.7115	73.4934	-75.1966	50.255	65.3938	-91.9297	41.0182	86.595	-20.1685	-14.0813	81.7224	-23.5069	-41.633	78.3844	-36.8811	-67.0733	116.631	-4.96032	-29.4935	105.663	-12.2402	-60.4537	108.885	-25.8301	-88.901	137.346	-0.861716	-31.9407	137.352	-2.72924	-62.1652	135.064	-13.7866	-84.1539	175.974	-7.87672	-19.0919	179.286	-11.9672	-43.2323	183.323	-11.8788	-65.0294	148.643	6.58719	22.1929	162.254	15.6481	54.438	125.493	1.20532	46.1394	
142	1.18333	107.313	-31.5946	66.9825	92.623	-57.5502	63.3744	75.8641	-75.7013	50.662	67.6087	-92.6213	44.5712	93.2198	-18.5062	-14.9316	82.5393	-22.7362	-39.7759	76.9994	-30.7099	-65.892	118.647	-4.69278	-31.9069	113.803	-8.78685	-59.8032	111.13	-22.3984	-93.7017	143.784	-0.97507	-33.9669	139.446	-2.21592	-57.6484	139.823	-12.457	-88.8748	178.662	-11.3875	-21.4136	181.236	-14.9531	-40.5489	189.527	-14.3113	-65.5675	154.413	4.72327	24.8354	165.136	15.3684	49.5626	124.267	1.70087	45.7214	
143	1.19167	111.702	-30.4673	64.7375	96.8536	-57.087	63.2073	77.764	-77.2568	51.6675	65.7368	-94.8148	43.5069	96.594	-19.5553	-12.5122	83.7181	-22.2146	-42.211	81.4987	-27.4917	-68.3705	123.101	-5.54972	-29.6959	117.09	-7.88621	-60.0115	112.144	-18.3767	-92.7114	148.503	-3.83671	-28.521	146.743	-3.98313	-63.5455	143.508	-11.7042	-86.1579	182.47	-14.6177	-18.5878	187.716	-19.9056	-39.0438	187.583	-20.1335	-66.2423	155.151	4.8014	19.6473	167.652	11.4688	55.392	129.876	-1.12837	44.1568	
144	1.2	115.856	-29.1468	68.764	98.3753	-58.047	62.1883	82.7975	-75.714	50.066	69.1816	-94.2255	45.868	98.312	-17.6846	-16.1655	90.0306	-18.5239	-44.1993	80.9982	-23.9856	-65.3588	124.456	-7.00714	-28.4199	119.102	-7.827	-61.5926	115.289	-14.2276	-90.3599	152.129	-4.59495	-32.2858	151.362	-4.87014	-58.4983	149.195	-12.24	-88.5055	187.46	-17.7108	-20.7018	190.13	-24.118	-44.1982	190.921	-25.4654	-63.4403	160.778	1.02603	18.5482	170.715	11.184	55.1099	132.214	1.64926	42.2693	
145	1.20833	118.263	-29.271	66.0329	101.549	-57.6509	57.0766	84.4893	-75.936	50.0807	70.9537	-93.3743	43.2578	104.957	-15.7811	-17.9082	94.0854	-15.2063	-41.1127	84.9268	-19.7758	-66.9989	130.496	-5.12518	-29.1928	123.128	-5.56514	-60.1176	121.174	-11.98	-90.7872	155.68	-5.6294	-31.6479	153.387	-6.12403	-62.1399	154.031	-15.4771	-88.1981	188.387	-20.6752	-20.5709	192.978	-27.3177	-40.9594	199.614	-31.2776	-64.5642	169.459	1.50294	20.5347	175.766	9.61768	52.2112	139.311	2.14168	42.0371	
